<?xml version="1.0" encoding="iso-8859-1"?>
<!-- Generator: Adobe Illustrator 27.9.1, SVG Export Plug-In . SVG Version: 6.00 Build 0)  -->
<svg version="1.1" id="Layer_1" xmlns="http://www.w3.org/2000/svg" xmlns:xlink="http://www.w3.org/1999/xlink" x="0px" y="0px"
	 width="56.8px" height="48.4072px" viewBox="0 0 56.8 48.4072" enable-background="new 0 0 56.8 48.4072" xml:space="preserve">
<path fill="#FFFFFF" stroke="#000000" stroke-width="0.8" d="M36.98,4.85c-10.72,0-19.41,8.7-19.41,19.42
	c0,10.72,8.69,19.41,19.41,19.41c10.72,0,19.42-8.69,19.42-19.41C56.4,13.55,47.7,4.85,36.98,4.85z M36.98,36.57
	c-6.8,0-12.3-5.51-12.3-12.3c0-6.8,5.5-12.31,12.3-12.31c6.79,0,12.31,5.51,12.31,12.31C49.29,31.06,43.77,36.57,36.98,36.57z"/>
<g id="callouts">
	<line fill="none" stroke="#000000" stroke-width="0.8" stroke-linecap="round" x1="0.4" y1="12.7536" x2="28.7554" y2="12.7536"/>
	<line fill="none" stroke="#000000" stroke-width="0.8" stroke-linecap="round" x1="0.4" y1="35.9263" x2="28.7554" y2="35.9263"/>
	<g>
		<g>
			<g>
				<line fill="none" stroke="#000000" stroke-width="0.8" stroke-linecap="round" x1="8.8407" y1="0.4" x2="8.8407" y2="5.4191"/>
				<g>
					<polygon points="6.5165,3.8339 8.8407,12.5065 11.1649,3.8339 					"/>
				</g>
			</g>
		</g>
	</g>
	<g>
		<g>
			<g>
				
					<line fill="none" stroke="#000000" stroke-width="0.8" stroke-linecap="round" x1="8.8407" y1="42.9881" x2="8.8407" y2="48.0072"/>
				<g>
					<polygon points="6.5165,44.5733 8.8407,35.9006 11.1649,44.5733 					"/>
				</g>
			</g>
		</g>
	</g>
</g>
</svg>
