<?xml version="1.0" encoding="iso-8859-1"?>
<!-- Generator: Adobe Illustrator 27.2.0, SVG Export Plug-In . SVG Version: 6.00 Build 0)  -->
<svg version="1.1" xmlns="http://www.w3.org/2000/svg" xmlns:xlink="http://www.w3.org/1999/xlink" x="0px" y="0px"
	 width="52.4001px" height="36.9865px" viewBox="0 0 52.4001 36.9865" enable-background="new 0 0 52.4001 36.9865"
	 xml:space="preserve">
<g id="image">
	<path fill="#FFFFFF" stroke="#000000" stroke-width="0.8" d="M34.4044,1.1419c-9.7188,0-17.6018,7.8828-17.6018,17.6016
		s7.8831,17.5957,17.6018,17.5957s17.5957-7.877,17.5957-17.5957S44.1231,1.1419,34.4044,1.1419z M34.4044,29.8946
		c-6.158,0-11.1572-4.9927-11.1572-11.1511c0-6.1577,4.9993-11.1572,11.1572-11.1572c6.1584,0,11.1511,4.9995,11.1511,11.1572
		C45.5555,24.9019,40.5628,29.8946,34.4044,29.8946z"/>
</g>
<g id="callouts">
	<line fill="none" stroke="#000000" stroke-width="0.8" stroke-linecap="round" x1="27.9599" y1="0.4" x2="0.4" y2="0.4"/>
	<line fill="none" stroke="#000000" stroke-width="0.8" stroke-linecap="round" x1="26.6267" y1="36.5865" x2="0.4" y2="36.5865"/>
	<g>
		<g>
			<g>
				
					<line fill="none" stroke="#000000" stroke-width="0.8" stroke-linecap="round" x1="7.7687" y1="29.2517" x2="7.7687" y2="7.4875"/>
				<g>
					<polygon points="10.0929,27.6666 7.7687,36.3392 5.4445,27.6666 					"/>
				</g>
				<g>
					<polygon points="10.0929,9.0726 7.7687,0.4 5.4445,9.0726 					"/>
				</g>
			</g>
		</g>
	</g>
</g>
</svg>
