<?xml version="1.0" encoding="iso-8859-1"?>
<!-- Generator: Adobe Illustrator 27.9.0, SVG Export Plug-In . SVG Version: 6.00 Build 0)  -->
<svg version="1.1" id="image" xmlns="http://www.w3.org/2000/svg" xmlns:xlink="http://www.w3.org/1999/xlink" x="0px" y="0px"
	 width="128.7762px" height="47.9255px" viewBox="0 0 128.7762 47.9255" enable-background="new 0 0 128.7762 47.9255"
	 xml:space="preserve">
<path fill="#FFFFFF" d="M89.8561,47.6102c-5.4798-6.3136-14.7626-10.4647-25.2912-10.4647
	c-10.5591,0-19.8647,4.1748-25.3389,10.5186L0.3882,47.5908C7.1024,20.5571,33.2154,0.4,64.4049,0.4
	c31.1378,0,57.217,20.0918,63.9833,47.0583L89.8561,47.6102z"/>
<path fill="#FFFFFF" d="M95.6317,47.6071C90.2073,36.642,78.2644,29.0273,64.4042,29.0273
	c-13.8703,0-25.8201,7.6259-31.2393,18.6035l6.0611,0.0334c5.4742-6.3438,14.7798-10.5186,25.3389-10.5186
	c10.5287,0,19.8115,4.1511,25.2912,10.4647L95.6317,47.6071z"/>
<path fill="none" stroke="#000000" stroke-width="0.8" stroke-miterlimit="10" d="M128.3882,47.4583
	C121.6219,20.4918,95.5427,0.4,64.4049,0.4C33.2154,0.4,7.1024,20.5571,0.3882,47.5908"/>
<path fill="none" stroke="#000000" stroke-width="0.8" stroke-miterlimit="10" d="M109.7381,47.7351
	c-5.6039-18.3246-23.7779-31.7477-45.3336-31.7477c-21.5437,0-39.7102,13.4089-45.3242,31.7182"/>
<path fill="none" stroke="#000000" stroke-width="0.8" stroke-miterlimit="10" d="M95.6317,47.6071
	C90.2073,36.642,78.2644,29.0273,64.4042,29.0273c-13.8703,0-25.8201,7.6259-31.2393,18.6035"/>
<path fill="none" stroke="#000000" stroke-width="0.8" stroke-miterlimit="10" d="M89.8561,47.6102
	c-5.4798-6.3136-14.7626-10.4647-25.2912-10.4647c-10.5591,0-19.8647,4.1748-25.3389,10.5186"/>
<g>
	<path d="M48.4348,8.6858c-0.2402-0.5371-0.7183-0.791-1.2715-0.6182c-1.1973,0.3745-0.9497,1.8291-0.6851,2.791l0.0215,0.0127
		c0.1528-0.6694,0.5723-1.0698,1.207-1.2676c1.1235-0.3506,2.062,0.3047,2.4204,1.4492c0.2808,0.8984,0.1709,2.2275-1.3066,2.688
		c-1.7339,0.5415-2.5386-1.0474-2.9458-2.3481c-0.5327-1.7017-0.5513-3.4697,1.1167-3.9902c0.9658-0.3013,1.749,0.0869,2.146,1.0654
		L48.4348,8.6858z M47.0036,12.0754c0.2402,0.7676,0.877,1.2402,1.6445,1c0.7603-0.2363,0.9819-1.0049,0.752-1.7383
		c-0.2402-0.7686-0.8193-1.2881-1.6201-1.0366C46.9958,10.5447,46.7605,11.2986,47.0036,12.0754z"/>
	<path d="M52.8684,5.9187c1.8823-0.376,2.3657,1.4272,2.6475,2.8354c0.2783,1.397,0.5249,3.2495-1.3584,3.6255
		c-1.8828,0.377-2.3662-1.4282-2.645-2.8267C51.2312,8.1457,50.9856,6.2947,52.8684,5.9187z M54.0237,11.7082
		c1.2295-0.2461,0.916-1.8613,0.7266-2.811c-0.188-0.9409-0.5181-2.5518-1.748-2.3062c-1.2295,0.2461-0.9165,1.8613-0.7285,2.8008
		C52.4631,10.3425,52.7942,11.9538,54.0237,11.7082z"/>
	<path d="M59.0866,5.0227c1.9146-0.1553,2.1875,1.6943,2.3042,3.124c0.1157,1.4204,0.1479,3.2891-1.7671,3.4443
		c-1.9146,0.1553-2.1875-1.6934-2.3032-3.1147C57.2029,7.0452,57.1721,5.177,59.0866,5.0227z M59.5676,10.9084
		c1.251-0.1021,1.1255-1.7422,1.0464-2.7075c-0.0781-0.9575-0.2207-2.5962-1.4717-2.4946c-1.2505,0.1006-1.125,1.7407-1.0469,2.6978
		C58.1745,9.3694,58.3171,11.009,59.5676,10.9084z"/>
	<path d="M66.4074,6.4553c-0.061-0.5859-0.436-0.9746-1.0151-0.9819c-1.2534-0.0171-1.4722,1.4419-1.5205,2.438l0.0166,0.0181
		c0.354-0.5894,0.876-0.8379,1.5415-0.8286c1.1763,0.0151,1.8638,0.9287,1.8467,2.1255c-0.0127,0.9409-0.5308,2.1675-2.0786,2.1475
		c-1.8145-0.0244-2.0845-1.7817-2.0659-3.1431c0.0249-1.7812,0.5581-3.4648,2.3042-3.4419c1.0112,0.0137,1.6343,0.624,1.7061,1.6758
		L66.4074,6.4553z M63.9919,9.2287c-0.0112,0.8037,0.4468,1.4497,1.2505,1.46c0.7949,0.0107,1.2451-0.6504,1.2554-1.4175
		c0.0117-0.8047-0.377-1.4761-1.2148-1.4883C64.4616,7.7732,64.0031,8.4158,63.9919,9.2287z"/>
	<path d="M69.0554,8.5281l2.4854,0.2637l-0.0781,0.7285l-2.4844-0.2646L69.0554,8.5281z"/>
	<path d="M73.5862,7.7795c0.1997-1.3027,1.1133-2.1162,2.3843-1.8599c1.0518,0.2114,1.7534,1.0249,1.5156,2.208
		c-0.2251,1.1196-1.0503,1.5415-1.8955,1.8828c-0.8516,0.3325-1.7212,0.5771-2.0244,1.3374l3.0874,0.6216l-0.1353,0.6724
		l-3.9258-0.7915c0.4209-1.4819,1.249-1.8745,2.209-2.2588c1.1504-0.4575,1.7471-0.748,1.9233-1.6265
		c0.1387-0.6909-0.2954-1.2539-0.9312-1.3823c-0.8394-0.1694-1.3594,0.5747-1.4868,1.3418L73.5862,7.7795z"/>
	<path d="M78.2282,12.2908l5.1929-3.6587l-3.375-1.0752l0.2217-0.6963l4.2974,1.3687L84.3425,8.927l-5.1836,3.6602L82.904,13.78
		l-0.2222,0.6973l-4.6758-1.4893L78.2282,12.2908z"/>
</g>
</svg>
