<?xml version="1.0" encoding="iso-8859-1"?>
<!-- Generator: Adobe Illustrator 27.2.0, SVG Export Plug-In . SVG Version: 6.00 Build 0)  -->
<svg version="1.1" xmlns="http://www.w3.org/2000/svg" xmlns:xlink="http://www.w3.org/1999/xlink" x="0px" y="0px"
	 width="52.4952px" height="56.8px" viewBox="0 0 52.4952 56.8" enable-background="new 0 0 52.4952 56.8" xml:space="preserve">
<g id="image">
	<path fill="#FFFFFF" stroke="#000000" stroke-width="0.8" stroke-miterlimit="10" d="M30.9663,0.4h-9.4416
		C9.8608,0.4,0.4,12.9392,0.4,28.4c0,15.4688,9.4608,28,21.1248,28h9.4416c11.668,0,21.1288-12.5312,21.1288-28
		C52.0952,12.9392,42.6344,0.4,30.9663,0.4z M26.537,40.7908c-3.3079-2.477-5.5551-7.3192-5.5551-12.8908
		c0-5.6509,2.3119-10.5555,5.6976-13.0012C33.2232,19.6932,34.7637,33.7151,26.537,40.7908z"/>
	<path fill="none" stroke="#000000" stroke-width="0.8" stroke-miterlimit="10" d="M52.0952,28.4c0,15.4688-9.4608,28-21.1288,28
		c-11.664,0-21.1252-12.5312-21.1252-28c0-15.4608,9.4612-28,21.1252-28C42.6344,0.4,52.0952,12.9392,52.0952,28.4z"/>
	
		<ellipse fill="none" stroke="#000000" stroke-width="0.8" stroke-miterlimit="10" cx="31.5172" cy="28.2988" rx="13.6524" ry="18.3672"/>
	<path fill="none" stroke="#000000" stroke-width="0.8" stroke-miterlimit="10" d="M29.7124,10.0564h-3.4568
		c-6.8008,1.0468-12.086,8.8124-12.086,18.2424c0,9.5076,5.3748,17.3356,12.2576,18.2732h4.5392"/>
	<path fill="none" stroke="#000000" stroke-width="0.8" stroke-miterlimit="10" d="M42.1576,27.9
		c0,8.094-4.742,14.6488-10.5856,14.6488c-5.8476,0-10.59-6.5548-10.59-14.6488c0-8.0936,4.7424-14.656,10.59-14.656
		C37.4156,13.244,42.1576,19.8064,42.1576,27.9z"/>
	<path fill="none" stroke="#000000" stroke-width="0.8" stroke-miterlimit="10" d="M26.5368,15.0016"/>
	<path fill="none" stroke="#000000" stroke-width="0.8" stroke-miterlimit="10" d="M32.5328,9.8844
		c-0.5624-0.9216-0.7072-1.9528-0.3008-2.8436c0.758-1.6564,3.1408-2.1876,5.3204-1.1876s3.336,3.1484,2.578,4.8048
		c-0.3632,0.7968-1.1056,1.328-2.0196,1.5624"/>
	<path fill="#FFFFFF" stroke="#000000" stroke-width="0.8" stroke-miterlimit="10" d="M25.2828,4.8532
		c1.3516-0.1172,2.5468,0.344,3.082,1.3284c0.828,1.5076-0.2072,3.664-2.3124,4.8124c-2.1016,1.156-4.4768,0.8672-5.3048-0.6328
		c-0.41-0.758-0.3592-1.672,0.0588-2.5468"/>
	<path fill="#FFFFFF" stroke="#000000" stroke-width="0.8" stroke-miterlimit="10" d="M17.6736,11.3844
		c1.3512,0.9376,1.7536,3.086,0.8708,5.0784c-0.9256,2.0936-2.9336,3.25-4.586,2.7032"/>
	<path fill="#FFFFFF" stroke="#000000" stroke-width="0.8" stroke-miterlimit="10" d="M13.0876,23.3064
		c1.4336,0.4688,2.582,2.2032,2.742,4.3436c0.1836,2.5236-1.0704,4.6876-2.832,4.9376"/>
	<path fill="#FFFFFF" stroke="#000000" stroke-width="0.8" stroke-miterlimit="10" d="M13.732,35.7596
		c1.5116-0.086,3.2424,1.1404,4.2108,3.1172c0.8712,1.7812,0.8828,3.672,0.1524,4.8672"/>
	<path fill="none" stroke="#000000" stroke-width="0.8" stroke-miterlimit="10" d="M18.0952,43.744
		c-0.16,0.2576-0.3552,0.492-0.582,0.672"/>
	<path fill="#FFFFFF" stroke="#000000" stroke-width="0.8" stroke-miterlimit="10" d="M20.3608,47.8064
		c0.4456-1.664,2.6836-2.5156,5.004-1.8984c2.3164,0.6172,3.836,2.4764,3.3868,4.1408c-0.254,0.9608-1.1056,1.6484-2.2228,1.9452"/>
	<path fill="none" stroke="#000000" stroke-width="0.8" stroke-miterlimit="10" d="M38.7008,44.0956
		c0.6564,0.2732,1.1836,0.742,1.4804,1.3672c0.7772,1.656-0.3476,3.828-2.5156,4.8516c-2.172,1.0232-4.5624,0.5076-5.3436-1.1484
		c-0.3908-0.8284-0.3048-1.7892,0.1524-2.6644"/>
	<path fill="none" stroke="#000000" stroke-width="0.8" stroke-miterlimit="10" d="M44.4156,34.322
		c0.0664,0.0236,0.1328,0.0548,0.1952,0.086c1.668,0.75,2.2228,3.1328,1.2384,5.3204c-0.9884,2.1876-3.1408,3.3436-4.8084,2.5936
		c-0.168-0.078-0.3284-0.164-0.4688-0.2732"/>
	<path fill="none" stroke="#000000" stroke-width="0.8" stroke-miterlimit="10" d="M44.5172,22.6816
		c0.2264-0.094,0.4688-0.1564,0.7188-0.18c1.8204-0.1796,3.492,1.6016,3.7344,3.9844c0.238,2.3908-1.0432,4.4768-2.8632,4.6564
		c-0.3712,0.0392-0.7384-0.008-1.086-0.1172"/>
	<path fill="none" stroke="#000000" stroke-width="0.8" stroke-miterlimit="10" d="M39.7516,13.5096
		c0.254-0.4296,0.6056-0.7812,1.0508-1.0156c1.6212-0.8516,3.8396,0.172,4.9568,2.2968c1.1172,2.1252,0.7112,4.5312-0.91,5.3908
		c-0.3048,0.156-0.6288,0.25-0.9648,0.2812"/>
	<path fill="none" stroke="#000000" stroke-width="0.8" stroke-miterlimit="10" d="M49.2828,28.15
		c0,13.6644-8.1564,24.7424-18.2148,24.7424c-10.0588,0-18.2148-11.078-18.2148-24.7424c0-13.664,8.156-24.734,18.2148-24.734
		C41.1264,3.416,49.2828,14.486,49.2828,28.15z"/>
	<path fill="none" stroke="#000000" stroke-width="0.8" stroke-miterlimit="10" d="M26.5368,15.0016"/>
</g>
<g id="callouts">
</g>
</svg>
