<?xml version="1.0" encoding="iso-8859-1"?>
<!-- Generator: Adobe Illustrator 28.1.0, SVG Export Plug-In . SVG Version: 6.00 Build 0)  -->
<svg version="1.1" xmlns="http://www.w3.org/2000/svg" xmlns:xlink="http://www.w3.org/1999/xlink" x="0px" y="0px"
	 width="75.4926px" height="60.0885px" viewBox="0 0 75.4926 60.0885" enable-background="new 0 0 75.4926 60.0885"
	 xml:space="preserve">
<g id="image">
	<polygon fill="#FFFFFF" points="75.3799,59.7311 0.1127,37.6343 0.1127,17.8715 75.3799,39.9679 	"/>
	
		<line fill="#FFFFFF" stroke="#000000" stroke-width="0.8" stroke-miterlimit="10" x1="75.2907" y1="59.7047" x2="0.1127" y2="37.6343"/>
	
		<line fill="#FFFFFF" stroke="#000000" stroke-width="0.8" stroke-miterlimit="10" x1="0.1127" y1="17.8715" x2="75.3799" y2="39.9679"/>
	<path fill="#FFFFFF" stroke="#000000" stroke-width="0.8" stroke-miterlimit="10" d="M15.5135,54.8007
		c-6.9416-2.5608-10.2116-12.9756-7.3184-23.88c2.9156-10.9872,11.0188-18.4404,18.3612-17.0812l9.3756,2.5972
		c7.322,2.1976,10.8456,12.874,7.876,24.066c-3.0092,11.342-11.5468,18.918-19.0692,16.922L15.5135,54.8007z"/>
	<path fill="none" stroke="#000000" stroke-width="0.8" stroke-miterlimit="10" d="M43.8079,40.5027
		c-3.0092,11.342-11.5468,18.918-19.0692,16.922c-7.5224-1.9956-11.1808-12.808-8.1716-24.1496
		c3.0096-11.3416,11.5472-18.918,19.0692-16.922C43.1587,18.3491,46.8171,29.1611,43.8079,40.5027z"/>
	<path fill="none" stroke="#000000" stroke-width="0.8" stroke-miterlimit="10" d="M42.6159,40.1639
		c-2.76,10.4032-10.4852,17.3808-17.2536,15.5848c-6.7688-1.796-10.0184-11.6852-7.258-22.0884
		c2.76-10.4032,10.4848-17.3808,17.2536-15.5848S45.3763,29.7611,42.6159,40.1639z"/>
	<path fill="none" stroke="#000000" stroke-width="0.8" stroke-miterlimit="10" d="M37.9899,38.9039
		c-1.6936,6.3828-6.5624,10.6292-10.8748,9.4852c-4.3128-1.1444-6.436-7.246-4.7424-13.6288s6.5624-10.6292,10.8752-9.4852
		C37.5603,26.4195,39.6835,32.5215,37.9899,38.9039z"/>
	<polygon fill="#FFFFFF" points="75.3799,59.7311 31.2959,46.7935 31.2959,27.0307 75.3799,39.9679 	"/>
	<path fill="none" stroke="#000000" stroke-width="0.8" stroke-miterlimit="10" d="M75.2907,59.7047L27.5663,45.6939l-0.1784-0.0556
		c-3.2628-0.8656-4.8084-5.7088-3.4528-10.818c1.2824-4.8328,4.7012-8.172,7.8288-7.7864l0.1528,0.0324l43.4632,12.76"/>
</g>
<g id="callouts">
	<g>
		<g>
			
				<line fill="none" stroke="#000000" stroke-width="0.8" stroke-linecap="round" stroke-miterlimit="10" x1="24.7287" y1="0.4" x2="24.7287" y2="6.3892"/>
			<g>
				<polygon points="22.4045,4.8041 24.7287,13.4767 27.0529,4.8041 				"/>
			</g>
		</g>
	</g>
</g>
</svg>
