<?xml version="1.0" encoding="iso-8859-1"?>
<!-- Generator: Adobe Illustrator 28.0.0, SVG Export Plug-In . SVG Version: 6.00 Build 0)  -->
<svg version="1.1" id="Layer_1" xmlns="http://www.w3.org/2000/svg" xmlns:xlink="http://www.w3.org/1999/xlink" x="0px" y="0px"
	 width="58.8808px" height="55.9697px" viewBox="0 0 58.8808 55.9697" enable-background="new 0 0 58.8808 55.9697"
	 xml:space="preserve">
<path fill="#FFFFFF" stroke="#000000" stroke-width="0.8" stroke-miterlimit="10" d="M51.0136,7.9077
	C46.7593,3.2529,41.0256,0.4,34.718,0.4H24.1629C11.039,0.4,0.4,12.7502,0.4,27.9849c0,15.2347,10.639,27.5848,23.7629,27.5848
	H34.718c13.1238,0,23.7628-12.3502,23.7628-27.5848C58.4808,20.0723,55.611,12.9379,51.0136,7.9077z M29.3076,37.4024
	l-0.1421,0.0094c-2.8379-2.07-4.7238-5.7337-4.7238-9.908c0-4.1336,1.8493-7.7665,4.6411-9.847l0.3882,0.0705
	c2.7395,2.0914,4.5477,5.6892,4.5477,9.7765C34.0187,31.6719,32.1384,35.3307,29.3076,37.4024z"/>
<path fill="none" stroke="#000000" stroke-width="0.8" stroke-miterlimit="10" d="M29.1655,37.4118
	c1.554,1.1335,3.3934,1.7892,5.3649,1.7892c5.5719,0,10.0888-5.237,10.0888-11.6971s-4.5169-11.6971-10.0888-11.6971
	c-2.0066,0-3.8764,0.6792-5.4477,1.8502"/>
<g>
	<defs>
		<path id="SVGID_1_" d="M34.6766,5.3525c-10.2555,0-18.7824,10.1139-18.7824,22.5901c0,12.4761,8.5269,22.5901,18.7824,22.5901
			S53.459,40.4186,53.459,27.9425C53.459,15.4663,44.9321,5.3525,34.6766,5.3525z M34.6766,46.2636
			c-8.3174,0-14.8468-8.2026-14.8468-18.3211c0-10.1185,6.5294-18.3211,14.8468-18.3211s14.8468,8.2026,14.8468,18.3211
			C49.5234,38.0609,42.9941,46.2636,34.6766,46.2636z"/>
	</defs>
	<use xlink:href="#SVGID_1_"  overflow="visible"/>
	<clipPath id="SVGID_00000023280862094275913250000009101629944443436955_">
		<use xlink:href="#SVGID_1_"  overflow="visible"/>
	</clipPath>
	<g clip-path="url(#SVGID_00000023280862094275913250000009101629944443436955_)">
		<circle fill="#999999" stroke="#000000" stroke-width="0.8" stroke-miterlimit="10" cx="30.2902" cy="7.8381" r="3.0705"/>
		<circle fill="#999999" stroke="#000000" stroke-width="0.8" stroke-miterlimit="10" cx="25.0265" cy="10.9086" r="3.0705"/>
		<circle fill="#999999" stroke="#000000" stroke-width="0.8" stroke-miterlimit="10" cx="21.0056" cy="15.5448" r="3.0705"/>
		<circle fill="#999999" stroke="#000000" stroke-width="0.8" stroke-miterlimit="10" cx="18.6662" cy="21.1131" r="3.0705"/>
		<circle fill="#999999" stroke="#000000" stroke-width="0.8" stroke-miterlimit="10" cx="17.7158" cy="27.1932" r="3.0705"/>
		<circle fill="#999999" stroke="#000000" stroke-width="0.8" stroke-miterlimit="10" cx="18.3007" cy="33.2793" r="3.0705"/>
		<circle fill="#999999" stroke="#000000" stroke-width="0.8" stroke-miterlimit="10" cx="20.9325" cy="38.8354" r="3.0705"/>
		<circle fill="#999999" stroke="#000000" stroke-width="0.8" stroke-miterlimit="10" cx="24.4417" cy="43.8067" r="3.0705"/>
		<circle fill="#999999" stroke="#000000" stroke-width="0.8" stroke-miterlimit="10" cx="29.486" cy="47.389" r="3.0705"/>
		<circle fill="#999999" stroke="#000000" stroke-width="0.8" stroke-miterlimit="10" cx="35.5052" cy="48.2662" r="3.0705"/>
		<circle fill="#999999" stroke="#000000" stroke-width="0.8" stroke-miterlimit="10" cx="41.4756" cy="46.5117" r="3.0705"/>
		<circle fill="#999999" stroke="#000000" stroke-width="0.8" stroke-miterlimit="10" cx="46.1544" cy="42.4908" r="3.0705"/>
		<circle fill="#999999" stroke="#000000" stroke-width="0.8" stroke-miterlimit="10" cx="49.0787" cy="37.2271" r="3.0705"/>
		<circle fill="#999999" stroke="#000000" stroke-width="0.8" stroke-miterlimit="10" cx="51.6375" cy="31.7441" r="3.0705"/>
		<circle fill="#999999" stroke="#000000" stroke-width="0.8" stroke-miterlimit="10" cx="50.6871" cy="25.6762" r="3.0705"/>
		<circle fill="#999999" stroke="#000000" stroke-width="0.8" stroke-miterlimit="10" cx="49.4442" cy="19.6814" r="3.0705"/>
		<circle fill="#999999" stroke="#000000" stroke-width="0.8" stroke-miterlimit="10" cx="46.6662" cy="14.2715" r="3.0705"/>
		<circle fill="#999999" stroke="#000000" stroke-width="0.8" stroke-miterlimit="10" cx="42.7184" cy="9.6658" r="3.0705"/>
		<circle fill="#999999" stroke="#000000" stroke-width="0.8" stroke-miterlimit="10" cx="36.5774" cy="7.8381" r="3.0705"/>
	</g>
</g>
<ellipse fill="none" stroke="#000000" stroke-width="0.8" stroke-miterlimit="10" cx="34.6766" cy="27.9425" rx="18.9347" ry="22.5901"/>
<ellipse fill="none" stroke="#000000" stroke-width="0.8" stroke-miterlimit="10" cx="34.6279" cy="27.9425" rx="14.6458" ry="18.3211"/>
<rect x="10.218" y="3.4704" fill="none" width="48.1742" height="48.5385"/>
<path fill="none" stroke="#000000" stroke-width="0.8" stroke-miterlimit="10" d="M34.718,0.4
	c-13.1238,0-23.7628,12.3502-23.7628,27.5848s10.639,27.5848,23.7628,27.5848"/>
</svg>
