<?xml version="1.0" encoding="iso-8859-1"?>
<!-- Generator: Adobe Illustrator 28.0.0, SVG Export Plug-In . SVG Version: 6.00 Build 0)  -->
<svg version="1.1" id="Layer_1" xmlns="http://www.w3.org/2000/svg" xmlns:xlink="http://www.w3.org/1999/xlink" x="0px" y="0px"
	 width="19.9908px" height="59.4935px" viewBox="0 0 19.9908 59.4935" enable-background="new 0 0 19.9908 59.4935"
	 xml:space="preserve">
<path fill="#FFFFFF" stroke="#000000" stroke-width="0.8" stroke-miterlimit="10" d="M17.6258,59.0935H2.365
	c-1.0808,0-1.965-0.8843-1.965-1.965V2.365C0.4,1.2843,1.2843,0.4,2.365,0.4h15.2607c1.0808,0,1.965,0.8843,1.965,1.965v54.7634
	C19.5908,58.2093,18.7066,59.0935,17.6258,59.0935z"/>
<polyline fill="none" stroke="#000000" stroke-width="0.8" stroke-miterlimit="10" points="0.4,2.9311 2.1169,4.9017 
	17.9258,4.9017 19.6429,3.025 "/>
<polyline fill="none" stroke="#000000" stroke-width="0.8" stroke-miterlimit="10" points="0.4,15.0241 2.1169,13.0535 
	17.9258,13.0535 19.6429,14.9302 "/>
<circle fill="#BFBFBF" stroke="#000000" stroke-width="0.8" stroke-miterlimit="10" cx="9.8583" cy="8.9717" r="5.7708"/>
<line fill="none" stroke="#000000" stroke-width="0.8" stroke-miterlimit="10" x1="0.4" y1="16.9644" x2="19.5725" y2="16.9644"/>
<polyline fill="none" stroke="#000000" stroke-width="0.8" stroke-miterlimit="10" points="0.4,56.5974 2.1169,54.6269 
	17.9258,54.6269 19.6429,56.5036 "/>
<polyline fill="none" stroke="#000000" stroke-width="0.8" stroke-miterlimit="10" points="0.4,44.5045 2.1169,46.475 
	17.9258,46.475 19.6429,44.5983 "/>
<circle fill="#BFBFBF" stroke="#000000" stroke-width="0.8" stroke-miterlimit="10" cx="9.8583" cy="50.5568" r="5.7708"/>
<line fill="none" stroke="#000000" stroke-width="0.8" stroke-miterlimit="10" x1="0.4" y1="42.5642" x2="19.5725" y2="42.5642"/>
</svg>
