<?xml version="1.0" encoding="iso-8859-1"?>
<!-- Generator: Adobe Illustrator 28.0.0, SVG Export Plug-In . SVG Version: 6.00 Build 0)  -->
<svg version="1.1" id="Layer_1" xmlns="http://www.w3.org/2000/svg" xmlns:xlink="http://www.w3.org/1999/xlink" x="0px" y="0px"
	 width="61.6226px" height="47.905px" viewBox="0 0 61.6226 47.905" enable-background="new 0 0 61.6226 47.905"
	 xml:space="preserve">
<path fill="#FFFFFF" stroke="#000000" stroke-width="0.8" stroke-miterlimit="10" d="M3.2595,34.2836
	c1.0498,1.3838,2.3671,2.3504,3.9155,2.7652c5.8438,1.5658,12.766-5.3192,15.4613-15.3782s0.143-19.4827-5.7008-21.0486
	c-1.5413-0.413-3.1577-0.2381-4.7517,0.4279"/>
<path fill="#BFBFBF" stroke="#000000" stroke-width="0.8" stroke-miterlimit="10" d="M3.2941,34.328
	c4.4855-1.8149,8.7686-7.4933,10.7679-14.9549c1.987-7.4156,1.122-14.486-1.8112-18.3173l-0.0671-0.0059
	C7.7341,2.9089,3.4585,8.5943,1.4741,16.0002C-0.5071,23.394,0.347,30.4446,3.2594,34.2835L3.2941,34.328z"/>
<g>
	<path fill="#FFFFFF" stroke="#000000" stroke-width="0.8" stroke-miterlimit="10" d="M34.0645,44.7157
		c-6.4416-1.726-9.2404-11.471-6.4664-21.8237S37.6684,5.4993,44.11,7.2254l9.433,2.5276c3.096,0.8296,5.3908,3.5223,6.6314,7.245
		c1.3406,4.0229,1.4502,9.2485,0.0095,14.6254c-2.774,10.3527-10.2447,17.3459-16.6864,15.6199L34.0645,44.7157z"/>
	<path fill="none" stroke="#000000" stroke-width="0.8" stroke-miterlimit="10" d="M53.543,9.7529
		c-6.4416-1.726-13.9124,5.2672-16.6864,15.6199c-2.774,10.3527,0.1992,20.1444,6.6409,21.8704"/>
</g>
<ellipse transform="matrix(0.2588 -0.9659 0.9659 0.2588 8.8892 68.1962)" fill="#FFFFFF" stroke="#000000" stroke-width="0.8" stroke-miterlimit="9.9991" cx="48.8816" cy="28.3058" rx="5.5407" ry="3.2946"/>
<ellipse transform="matrix(0.2588 -0.9659 0.9659 0.2588 8.75 67.8604)" fill="none" stroke="#000000" stroke-width="0.5" stroke-miterlimit="3.9997" cx="48.5931" cy="28.2286" rx="16.4993" ry="9.5852"/>
<line fill="none" stroke="#999999" stroke-width="0.8" stroke-miterlimit="10" stroke-dasharray="3,1" x1="39.7645" y1="6.2078" x2="21.019" y2="1.4347"/>
<line fill="none" stroke="#999999" stroke-width="0.8" stroke-miterlimit="10" stroke-dasharray="3,1" x1="28.4614" y1="42.5652" x2="9.8388" y2="37.8233"/>
<g>
	<line fill="none" x1="0.5347" y1="27.1729" x2="23.3918" y2="10.6014"/>
	<g>
		
			<line fill="none" stroke="#000000" stroke-width="0.8" stroke-miterlimit="10" x1="4.8383" y1="24.0528" x2="19.0882" y2="13.7215"/>
		<g>
			<polygon points="6.824,24.7662 0.5347,27.1729 4.7776,21.9437 			"/>
		</g>
		<g>
			<polygon points="19.1489,15.8306 23.3918,10.6014 17.1025,13.0081 			"/>
		</g>
	</g>
</g>
</svg>
