<?xml version="1.0" encoding="iso-8859-1"?>
<!-- Generator: Adobe Illustrator 28.0.0, SVG Export Plug-In . SVG Version: 6.00 Build 0)  -->
<svg version="1.1" id="Layer_1" xmlns="http://www.w3.org/2000/svg" xmlns:xlink="http://www.w3.org/1999/xlink" x="0px" y="0px"
	 width="58.8808px" height="55.9697px" viewBox="0 0 58.8808 55.9697" enable-background="new 0 0 58.8808 55.9697"
	 xml:space="preserve">
<path fill="#FFFFFF" stroke="#000000" stroke-width="0.8" stroke-miterlimit="10" d="M51.0136,7.9077
	C46.7593,3.2529,41.0256,0.4,34.718,0.4H24.1628C11.039,0.4,0.4,12.7502,0.4,27.9849c0,15.2347,10.639,27.5848,23.7628,27.5848
	H34.718c13.1238,0,23.7628-12.3502,23.7628-27.5848C58.4808,20.0723,55.611,12.9379,51.0136,7.9077z M29.5694,37.4024
	l-0.1421,0.0094c-2.8379-2.07-4.7238-5.7337-4.7238-9.908c0-4.1336,1.8493-7.7665,4.6411-9.847l0.3882,0.0705
	c2.7395,2.0914,4.5477,5.6892,4.5477,9.7765C34.2804,31.6719,32.4002,35.3307,29.5694,37.4024z"/>
<path fill="none" stroke="#000000" stroke-width="0.8" stroke-miterlimit="10" d="M29.4272,37.4118
	c1.554,1.1335,3.3934,1.7892,5.3649,1.7892c5.5719,0,10.0888-5.237,10.0888-11.6971S40.364,15.8067,34.7922,15.8067
	c-2.0066,0-3.8764,0.6792-5.4476,1.8502"/>
<g>
	<defs>
		<path id="SVGID_1_" d="M34.9384,5.3525c-10.2555,0-18.7824,10.1139-18.7824,22.5901c0,12.4761,8.5269,22.5901,18.7824,22.5901
			s18.7824-10.1139,18.7824-22.5901C53.7208,15.4663,45.1939,5.3525,34.9384,5.3525z M34.9384,46.2636
			c-8.3174,0-14.8468-8.2026-14.8468-18.3211c0-10.1185,6.5294-18.3211,14.8468-18.3211s14.8468,8.2026,14.8468,18.3211
			C49.7852,38.0609,43.2558,46.2636,34.9384,46.2636z"/>
	</defs>
	<use xlink:href="#SVGID_1_"  overflow="visible" fill="#999999"/>
	<clipPath id="SVGID_00000173119290245266525650000012919519565991179149_">
		<use xlink:href="#SVGID_1_"  overflow="visible"/>
	</clipPath>
</g>
<ellipse fill="none" stroke="#000000" stroke-width="0.8" stroke-miterlimit="10" cx="34.9384" cy="27.9425" rx="18.9347" ry="22.5901"/>
<ellipse fill="none" stroke="#000000" stroke-width="0.8" stroke-miterlimit="10" cx="34.8896" cy="27.9425" rx="14.6458" ry="18.3211"/>
<rect x="10.4798" y="3.4704" fill="none" width="48.1742" height="48.5385"/>
<path fill="none" stroke="#000000" stroke-width="0.8" stroke-miterlimit="10" d="M34.718,0.4
	c-13.1238,0-23.7628,12.3502-23.7628,27.5848s10.639,27.5848,23.7628,27.5848"/>
</svg>
