<?xml version="1.0" encoding="iso-8859-1"?>
<!-- Generator: Adobe Illustrator 28.0.0, SVG Export Plug-In . SVG Version: 6.00 Build 0)  -->
<svg version="1.1" xmlns="http://www.w3.org/2000/svg" xmlns:xlink="http://www.w3.org/1999/xlink" x="0px" y="0px"
	 width="58.8808px" height="55.9697px" viewBox="0 0 58.8808 55.9697" enable-background="new 0 0 58.8808 55.9697"
	 xml:space="preserve">
<g id="Layer_1">
	<path fill="#FFFFFF" stroke="#000000" stroke-width="0.8" stroke-miterlimit="10" d="M51.0136,7.9077
		C46.7593,3.2529,41.0256,0.4,34.718,0.4H24.1629C11.039,0.4,0.4,12.7502,0.4,27.9849s10.639,27.5848,23.7629,27.5848H34.718
		c13.1238,0,23.7628-12.3502,23.7628-27.5848C58.4808,20.0723,55.611,12.9379,51.0136,7.9077z M29.5848,37.4024l-0.1422,0.0094
		c-2.8378-2.07-4.7238-5.7337-4.7238-9.908c0-4.1336,1.8493-7.7665,4.6411-9.847l0.3882,0.0705
		c2.7395,2.0914,4.5477,5.6892,4.5477,9.7765C34.2958,31.6719,32.4156,35.3307,29.5848,37.4024z"/>
	<rect x="10.4952" y="3.4704" fill="none" width="48.1742" height="48.5385"/>
	<path fill="none" stroke="#000000" stroke-width="0.8" stroke-miterlimit="10" d="M34.718,0.4
		c-13.1238,0-23.7628,12.3502-23.7628,27.5848s10.639,27.5848,23.7628,27.5848"/>
	<path fill="none" stroke="#000000" stroke-width="0.8" stroke-miterlimit="10" d="M29.4427,37.4118
		c1.554,1.1335,3.3934,1.7892,5.3649,1.7892c5.5719,0,10.0888-5.237,10.0888-11.6971s-4.5169-11.6971-10.0888-11.6971
		c-2.0066,0-3.8764,0.6792-5.4477,1.8502"/>
	<path fill="#999999" d="M41.8857,7.0714c0,0,12.5143,4.9286,12.5143,20.9571S41.4857,49.1143,41.4857,49.1143l0.4286-0.6571
		c0,0,10.7143-5.6286,10.7143-20.3714S41.8857,7.0714,41.8857,7.0714z"/>
	<path fill="#999999" d="M31.1429,9.8571c0,0-12.6286,2.3429-12.6286,18.9714c0,10.6286,8.1714,16.1143,11.6571,16.7429
		c0,0-9.3714-3.6571-10.1143-17.1429S31.1429,9.8571,31.1429,9.8571z"/>
	<g>
		<g>
			
				<ellipse id="SVGID_00000058590171099333717650000006160962045657578677_" fill="none" cx="34.9538" cy="27.9425" rx="14.8468" ry="18.3211"/>
		</g>
		<g>
			<path id="SVGID_00000053511967978830923810000010654334491738136498_" fill="none" stroke="#000000" stroke-width="0.5" d="
				M34.9538,5.3524c10.3732,0,19.2824,10.1139,19.2824,22.5901S45.327,50.5326,34.9538,50.5326S15.5214,40.4187,15.5214,27.9425
				S24.5806,5.3524,34.9538,5.3524z"/>
		</g>
		<g>
			
				<ellipse id="SVGID_00000128443268575605921070000004804766963485075082_" fill="none" stroke="#000000" stroke-width="0.5" cx="34.9538" cy="27.9425" rx="14.8468" ry="18.3211"/>
		</g>
	</g>
	<g>
		<g>
			<path id="SVGID_00000124138191146272323530000013814820574235592619_" fill="none" stroke="#000000" stroke-width="0.5" d="
				M34.0897,50.5326c10.2555,0,18.5324-10.1139,18.5324-22.5901S44.3452,5.3524,34.0897,5.3524 M33.8397,46.2636
				c-8.3174,0-15.3468-8.2026-15.3468-18.3211S25.5223,9.6214,33.8397,9.6214"/>
		</g>
	</g>
</g>
<g id="Layer_2">
</g>
</svg>
