<?xml version="1.0" encoding="iso-8859-1"?>
<!-- Generator: Adobe Illustrator 28.7.5, SVG Export Plug-In . SVG Version: 9.03 Build 55973)  -->
<svg version="1.1" id="Layer_2_00000080183188066524838150000004648021054006800776_"
	 xmlns="http://www.w3.org/2000/svg" xmlns:xlink="http://www.w3.org/1999/xlink" x="0px" y="0px" width="60px" height="60px"
	 viewBox="0 0 60 60" enable-background="new 0 0 60 60" xml:space="preserve">
<polygon fill="#FFFFFF" points="49.0968,51.5089 21.4887,63.4577 -1.5566,61.9096 -1.5566,-1.9096 62.2627,-1.9096 62.4843,45.384 
	"/>
<ellipse transform="matrix(0.5459 -0.8379 0.8379 0.5459 -12.2321 38.1888)" fill="none" stroke="#000000" stroke-width="0.8" stroke-miterlimit="10" cx="29.1126" cy="30.3783" rx="23.1442" ry="18.9528"/>
<path fill="none" stroke="#000000" stroke-width="0.8" stroke-linecap="round" stroke-miterlimit="10" d="M11.4019,44.6413
	C6.4686,37.9789,7.168,28.018,12.8633,19.276c6.9773-10.7099,19.7433-14.7601,28.5136-9.0464
	c1.6198,1.0553,2.99,2.3698,4.1036,3.8793"/>
<ellipse transform="matrix(0.5459 -0.8379 0.8379 0.5459 -12.2321 38.1888)" fill="none" stroke="#000000" stroke-width="0.8" stroke-miterlimit="10" cx="29.1126" cy="30.3783" rx="16.3687" ry="13.4044"/>
<ellipse transform="matrix(0.5459 -0.8379 0.8379 0.5459 -12.2321 38.1888)" fill="none" stroke="#000000" stroke-width="0.8" stroke-miterlimit="10" cx="29.1126" cy="30.3783" rx="11.6582" ry="9.5469"/>
<ellipse transform="matrix(0.5459 -0.8379 0.8379 0.5459 -12.2321 38.1888)" fill="none" stroke="#000000" stroke-width="0.8" stroke-miterlimit="10" cx="29.1126" cy="30.3783" rx="11.6582" ry="9.5469"/>
<ellipse transform="matrix(0.5459 -0.8379 0.8379 0.5459 -12.2321 38.1888)" fill="none" stroke="#000000" stroke-width="0.8" stroke-miterlimit="10" cx="29.1126" cy="30.3783" rx="9.7023" ry="7.9452"/>
<ellipse transform="matrix(0.5459 -0.8379 0.8379 0.5459 -12.2321 38.1888)" fill="none" stroke="#000000" stroke-width="0.8" stroke-miterlimit="10" cx="29.1126" cy="30.3783" rx="9.7023" ry="7.9452"/>
<path fill="none" stroke="#000000" stroke-width="0.8" stroke-miterlimit="10" d="M32.9073,21.5221
	c3.3142,2.5305,3.7721,7.8614,0.9576,12.1815c-2.4109,3.7006-6.4704,5.5045-9.8817,4.683l-0.7857-0.3391"/>
<line fill="none" stroke="#000000" stroke-width="0.5" stroke-miterlimit="10" x1="61.5302" y1="46.1277" x2="21.4887" y2="63.4577"/>
</svg>
